<svg width="31" height="23" viewBox="0 0 31 23" fill="none" xmlns="http://www.w3.org/2000/svg">
<path d="M29.7377 11.2475C28.4125 5.25634 26.4182 2.05863 23.4598 1.18516C22.8379 1.00272 22.1928 0.911594 21.5448 0.914624C20.6882 0.914624 19.9422 1.12331 19.153 1.34448C18.2021 1.61127 17.1218 1.9143 15.5467 1.9143C13.9716 1.9143 12.8907 1.6119 11.9379 1.34511C11.1481 1.12331 10.4027 0.914624 9.54865 0.914624C8.8785 0.912268 8.21129 1.00311 7.56616 1.18454C4.62337 2.05425 2.63026 5.25072 1.2857 11.2438C-0.160083 17.6929 0.551561 21.7647 3.2813 22.7094C3.65548 22.8414 4.04918 22.9094 4.44592 22.9106C6.31594 22.9106 7.81546 21.353 8.84013 20.0778C9.99788 18.6345 11.3531 17.9022 15.5467 17.9022C19.2924 17.9022 20.8425 18.4102 22.1814 20.0778C23.023 21.1262 23.8184 21.8597 24.6119 22.3214C25.6672 22.935 26.7218 23.0712 27.7459 22.7194C29.3591 22.169 30.2838 20.7138 30.495 18.3933C30.6556 16.6139 30.4081 14.2765 29.7377 11.2475ZM12.5477 10.9114H10.5483V12.9107C10.5483 13.1759 10.443 13.4301 10.2555 13.6176C10.068 13.8051 9.81378 13.9104 9.54865 13.9104C9.28352 13.9104 9.02924 13.8051 8.84177 13.6176C8.65429 13.4301 8.54897 13.1759 8.54897 12.9107V10.9114H6.54962C6.28449 10.9114 6.03022 10.8061 5.84274 10.6186C5.65527 10.4311 5.54994 10.1768 5.54994 9.91171C5.54994 9.64658 5.65527 9.39231 5.84274 9.20483C6.03022 9.01736 6.28449 8.91203 6.54962 8.91203H8.54897V6.91268C8.54897 6.64755 8.65429 6.39328 8.84177 6.2058C9.02924 6.01833 9.28352 5.913 9.54865 5.913C9.81378 5.913 10.068 6.01833 10.2555 6.2058C10.443 6.39328 10.5483 6.64755 10.5483 6.91268V8.91203H12.5477C12.8128 8.91203 13.0671 9.01736 13.2546 9.20483C13.442 9.39231 13.5474 9.64658 13.5474 9.91171C13.5474 10.1768 13.442 10.4311 13.2546 10.6186C13.0671 10.8061 12.8128 10.9114 12.5477 10.9114ZM17.796 11.1613C17.5488 11.1613 17.3072 11.088 17.1017 10.9507C16.8962 10.8134 16.7361 10.6182 16.6415 10.3899C16.5469 10.1616 16.5222 9.91032 16.5704 9.66793C16.6186 9.42553 16.7376 9.20287 16.9124 9.02811C17.0871 8.85335 17.3098 8.73434 17.5522 8.68612C17.7946 8.63791 18.0458 8.66266 18.2742 8.75723C18.5025 8.85181 18.6977 9.01198 18.835 9.21747C18.9723 9.42297 19.0456 9.66456 19.0456 9.91171C19.0456 10.2431 18.9139 10.561 18.6796 10.7953C18.4452 11.0297 18.1274 11.1613 17.796 11.1613ZM20.5451 13.9104C20.2978 13.9104 20.0561 13.837 19.8505 13.6996C19.645 13.5622 19.4848 13.3668 19.3903 13.1383C19.2958 12.9098 19.2713 12.6584 19.3197 12.4159C19.3682 12.1734 19.4875 11.9508 19.6626 11.7761C19.8377 11.6015 20.0606 11.4827 20.3032 11.4349C20.5458 11.387 20.7972 11.4122 21.0255 11.5072C21.2537 11.6023 21.4487 11.763 21.5856 11.9689C21.7225 12.1748 21.7953 12.4167 21.7947 12.6639C21.7939 12.9948 21.6618 13.3119 21.4276 13.5455C21.1933 13.7792 20.876 13.9104 20.5451 13.9104ZM20.5451 8.41219C20.2979 8.41219 20.0563 8.33891 19.8508 8.2016C19.6454 8.06429 19.4852 7.86913 19.3906 7.6408C19.296 7.41247 19.2713 7.16121 19.3195 6.91882C19.3677 6.67642 19.4867 6.45376 19.6615 6.279C19.8362 6.10424 20.0589 5.98523 20.3013 5.93702C20.5437 5.8888 20.795 5.91355 21.0233 6.00812C21.2516 6.1027 21.4468 6.26287 21.5841 6.46836C21.7214 6.67386 21.7947 6.91545 21.7947 7.1626C21.7947 7.49401 21.663 7.81185 21.4287 8.0462C21.1943 8.28054 20.8765 8.41219 20.5451 8.41219ZM23.2942 11.1613C23.047 11.1613 22.8055 11.088 22.6 10.9507C22.3945 10.8134 22.2343 10.6182 22.1397 10.3899C22.0451 10.1616 22.0204 9.91032 22.0686 9.66793C22.1168 9.42553 22.2358 9.20287 22.4106 9.02811C22.5854 8.85335 22.808 8.73434 23.0504 8.68612C23.2928 8.63791 23.5441 8.66266 23.7724 8.75723C24.0007 8.85181 24.1959 9.01198 24.3332 9.21747C24.4705 9.42297 24.5438 9.66456 24.5438 9.91171C24.5438 10.2431 24.4121 10.561 24.1778 10.7953C23.9434 11.0297 23.6256 11.1613 23.2942 11.1613Z" fill="#D70263"/>
</svg>
