<svg width="32" height="28" viewBox="0 0 32 28" fill="none" xmlns="http://www.w3.org/2000/svg">
<path d="M12.5581 4.17965C14.8714 1.07784 18.3495 0.172063 21.5491 1.04363C25.0028 1.98362 28.0394 4.95022 29.0478 9.08162C29.1 9.29341 29.145 9.50519 29.183 9.71697C27.7273 9.19826 26.1439 9.1583 24.6639 9.60293C22.5673 8.05203 19.9705 7.79137 17.662 8.64176C14.7704 9.70883 12.5124 12.4148 11.9895 15.8196C11.3216 20.1791 13.977 24.0954 17.7321 27.4253L18.3642 27.9727C17.8543 28.0085 17.3362 27.9287 16.841 27.8228C16.5865 27.7681 16.3334 27.7072 16.0818 27.6404L15.207 27.396C7.42964 25.2081 2.22303 21.7854 0.729145 16.67C-0.463358 12.5874 0.68353 8.50003 3.20538 5.95863C5.54151 3.60458 9.00498 2.64993 12.5581 4.17965ZM15.2102 16.3132C15.9075 11.7648 21.1679 9.52311 23.8689 13.4264C23.8948 13.4627 23.9339 13.4873 23.9778 13.495C24.0218 13.5026 24.0669 13.4926 24.1035 13.4672C27.9759 10.7238 32.1513 14.6287 31.2504 19.1413C30.7291 21.7587 28.3017 23.9309 23.9683 25.6577L23.2596 25.9347L22.8312 26.1106C22.4614 26.2556 22.0704 26.3713 21.7169 26.3094C21.365 26.2475 21.0375 26.0031 20.7394 25.7424L20.2344 25.2863C16.4657 22.0433 14.791 19.0523 15.2102 16.3132Z" fill="#D70263"/>
</svg>
