<svg width="28" height="30" viewBox="0 0 28 30" fill="none" xmlns="http://www.w3.org/2000/svg">
<path d="M22.2665 8.8934C22.2665 11.2815 21.4704 14.4657 17.6495 15.7393C18.7639 13.0328 18.9231 10.3263 18.1271 7.77894C17.0126 4.43558 13.3508 1.88826 10.8035 0.455391C10.1667 -0.0222324 9.05224 0.614598 9.21145 1.56984C9.21145 3.32113 8.73382 5.86845 6.02729 8.57498C2.52472 12.0776 0.773438 15.7393 0.773438 19.2419C0.773438 23.8589 3.95759 29.5904 10.3259 29.5904C3.95759 23.2221 8.73382 17.6498 8.73382 17.6498C10.0075 27.0431 16.6942 29.5904 19.8784 29.5904C22.5849 29.5904 27.8387 27.6799 27.8387 19.4011C27.8387 14.4657 25.769 10.6447 24.0178 8.41577C23.5401 7.61974 22.4257 8.09736 22.2665 8.8934Z" fill="#D70263"/>
</svg>
