<svg width="21" height="21" viewBox="0 0 21 21" fill="none" xmlns="http://www.w3.org/2000/svg">
<path d="M10.8011 1.99109C13.4742 1.99109 13.8306 1.99109 14.8108 2.08019C15.791 2.08019 16.3256 2.2584 16.682 2.43661C17.1275 2.61482 17.484 2.79304 17.8404 3.14946C18.1968 3.50588 18.375 3.8623 18.5532 4.30782C18.7314 4.66424 18.8205 5.19888 18.9096 6.17903C18.9987 7.2483 18.9988 7.51561 18.9988 10.1888C18.9988 12.8619 18.9987 13.2183 18.9096 14.1985C18.8205 15.1787 18.7314 15.7133 18.5532 16.0697C18.375 16.5152 18.1968 16.8717 17.8404 17.2281C17.484 17.5845 17.1275 17.7627 16.682 17.9409C16.3256 18.1191 15.791 18.2082 14.8108 18.2973C13.7415 18.3864 13.4742 18.3864 10.8011 18.3864C8.12792 18.3864 7.7715 18.3864 6.79134 18.2973C5.81118 18.2973 5.27655 18.1191 4.92013 17.9409C4.4746 17.7627 4.11818 17.5845 3.76176 17.2281C3.40534 16.8717 3.22713 16.5152 3.04892 16.0697C2.87071 15.7133 2.7816 15.1787 2.6925 14.1985C2.60339 13.1292 2.60339 12.8619 2.60339 10.1888C2.60339 7.51561 2.60339 7.15919 2.6925 6.17903C2.7816 5.19888 2.87071 4.66424 3.04892 4.30782C3.22713 3.8623 3.40534 3.50588 3.76176 3.14946C4.11818 2.79304 4.4746 2.61482 4.92013 2.43661C5.27655 2.2584 5.81118 2.1693 6.79134 2.08019C7.8606 1.99109 8.12792 1.99109 10.8011 1.99109ZM10.8011 0.208984C8.12792 0.208984 7.7715 0.208985 6.70223 0.29809C5.63297 0.387195 4.92013 0.4763 4.29639 0.743616C3.67266 1.01093 3.04892 1.36735 2.51429 1.90198C1.97966 2.43661 1.62324 3.06035 1.35592 3.68409C1.0886 4.30782 0.910395 5.02067 0.910395 6.08993C0.821289 7.15919 0.821289 7.51561 0.821289 10.1888C0.821289 12.8619 0.821289 13.2183 0.910395 14.2876C0.9995 15.3569 1.0886 16.0697 1.35592 16.6934C1.62324 17.3172 1.97966 17.9409 2.51429 18.4756C3.04892 19.0102 3.67266 19.3666 4.29639 19.6339C4.92013 19.9012 5.63297 20.0794 6.70223 20.0794C7.7715 20.1685 8.12792 20.1686 10.8011 20.1686C13.4742 20.1686 13.8306 20.1685 14.8999 20.0794C15.9692 19.9903 16.682 19.9012 17.3058 19.6339C17.9295 19.3666 18.5532 19.0102 19.0879 18.4756C19.6225 17.9409 19.9789 17.3172 20.2462 16.6934C20.5135 16.0697 20.6917 15.3569 20.6917 14.2876C20.7809 13.2183 20.7809 12.8619 20.7809 10.1888C20.7809 7.51561 20.7809 7.15919 20.6917 6.08993C20.6026 5.02067 20.5135 4.30782 20.2462 3.68409C19.9789 3.06035 19.6225 2.43661 19.0879 1.90198C18.5532 1.36735 17.9295 1.01093 17.3058 0.743616C16.682 0.4763 15.9692 0.29809 14.8999 0.29809C13.9198 0.208985 13.5633 0.208984 10.8011 0.208984Z" fill="#D70263"/>
<path d="M10.4315 5.38379C7.57653 5.38379 5.25684 7.70348 5.25684 10.5585C5.25684 13.4135 7.57653 15.7332 10.4315 15.7332C13.2865 15.7332 15.6062 13.4135 15.6062 10.5585C15.6062 7.70348 13.2865 5.38379 10.4315 5.38379ZM10.4315 13.8596C8.55794 13.8596 7.13044 12.3429 7.13044 10.5585C7.13044 8.77411 8.64716 7.25739 10.4315 7.25739C12.2159 7.25739 13.7326 8.77411 13.7326 10.5585C13.7326 12.3429 12.3051 13.8596 10.4315 13.8596Z" fill="#D70263"/>
<path d="M17.0849 5.01414C17.0849 5.61122 16.5731 6.123 15.9761 6.123C15.379 6.123 14.8672 5.61122 14.8672 5.01414C14.8672 4.41706 15.379 3.90527 15.9761 3.90527C16.5731 3.90527 17.0849 4.41706 17.0849 5.01414Z" fill="#D70263"/>
</svg>
